<?xml version="1.0" encoding="utf-8"?>
<!-- Generator: Adobe Illustrator 16.0.0, SVG Export Plug-In . SVG Version: 6.00 Build 0)  -->
<!DOCTYPE svg PUBLIC "-//W3C//DTD SVG 1.1//EN" "http://www.w3.org/Graphics/SVG/1.1/DTD/svg11.dtd">
<svg version="1.1" id="Capa_1" xmlns="http://www.w3.org/2000/svg" xmlns:xlink="http://www.w3.org/1999/xlink" x="0px" y="0px"
	 width="74.286px" height="124.286px" viewBox="0 0 74.286 124.286" enable-background="new 0 0 74.286 124.286"
	 xml:space="preserve">
<path fill="#CAC8CA" stroke="#636461" stroke-width="0.25" stroke-miterlimit="10" d="M23.214,48.387c0,0,4.167-6.167,15.333-4.667
	c0,0,17.833,4.833,24.167,17.5c0,0,0.833,8.5,0,10c0,0-26.666-10.833-37.333,1.166l-0.833,2
	C24.548,74.387,19.547,76.054,23.214,48.387z"/>
<path fill="#CAC8CA" stroke="#636461" stroke-width="0.25" stroke-miterlimit="10" d="M30.214,43.486c0,0-2-4.104,1.5-8.104
	c0,0-1.166-3,3.167-6c0,0,10.666-10.167,14.333-9.167c0,0,11.667,4.667,14.667,16.167c0,0,2.999,19.845-1.167,24.839
	C62.714,61.221,54.38,42.924,30.214,43.486z"/>
<path fill="#CAC8CA" stroke="#636461" stroke-width="0.25" stroke-miterlimit="10" d="M59.129,69.941c0,0,6.577,1.428,7.378,9.779
	c0.043,0.452,0.069,0.924,0.077,1.416c0.008,0.498-0.004,1.018-0.036,1.561c0,0,0.333,2-0.667,4.666c0,0-1.337,4-6.752,4.834
	c0,0-1.415,6.168-6.248,6.5c0,0-0.833,7.834-6.833,5.334c0,0-6.362,7.602-13.695,6.939c-0.267-0.025-0.536-0.061-0.805-0.107
	c0,0-5.333,4.5-8.667-3.832c0,0-13.333-12.812,1.667-32.656C24.548,74.375,28.711,61.018,59.129,69.941z"/>
<path fill="#688E36" stroke="#636461" stroke-width="0.25" stroke-miterlimit="10" d="M33.535,30.469c0,0-3.738-5.809-8.654-3.392
	c0,0-6.25,0.416-5.333,12.083c0,0,1.583,8.037,3.667,9.227c0,0,6.262-5.675,7.298-4.368s-2.547-3.692-0.714-5.192
	c0,0,1.083-3.724,1.917-3.445C31.714,35.382,32.522,29.861,33.535,30.469z"/>
<path fill="#539E3F" stroke="#636461" stroke-width="0.25" stroke-miterlimit="10" d="M29.646,92.385c0,0-1.265-11.334-5.931-9.834
	c0,0-6.188,3-1.844,15C21.871,97.551,24.577,100.051,29.646,92.385z"/>
<path fill="#643167" stroke="#636461" stroke-width="0.25" stroke-miterlimit="10" d="M23.214,107.051
	c0,0,14.693-5.832,19.264-12.166c0,0,3.236-14.166,8.736-10.166c0,0,4,1.166,2.834,4.5c0,0-6.501,12.332-17.334,17.832
	c0,0-4.638,4-7.069,4.834C29.646,111.885,24.547,113.551,23.214,107.051z"/>
<path fill="#ADADAB" stroke="#636461" stroke-width="0.25" stroke-miterlimit="10" d="M59.129,92.197c0,0-4.587-2.934-4.868-4.146"
	/>
<path fill="#ADADAB" stroke="#636461" stroke-width="0.25" stroke-miterlimit="10" d="M52.881,98.697c0,0-2.221-1.486-2.277-4.149"
	/>
<path fill="#ADADAB" stroke="#636461" stroke-width="0.25" stroke-miterlimit="10" d="M46.048,104.031c0,0-0.602,1.262-0.885-3.193"
	/>
<line fill="#ADADAB" stroke="#636461" stroke-width="0.25" stroke-miterlimit="10" x1="40.287" y1="108.838" x2="38.738" y2="105.051"/>
</svg>
