<?xml version="1.0" encoding="utf-8"?>
<!-- Generator: Adobe Illustrator 16.0.0, SVG Export Plug-In . SVG Version: 6.00 Build 0)  -->
<!DOCTYPE svg PUBLIC "-//W3C//DTD SVG 1.1//EN" "http://www.w3.org/Graphics/SVG/1.1/DTD/svg11.dtd">
<svg version="1.1" id="Capa_1" xmlns="http://www.w3.org/2000/svg" xmlns:xlink="http://www.w3.org/1999/xlink" x="0px" y="0px"
	 width="80px" height="127.143px" viewBox="0 0 80 127.143" enable-background="new 0 0 80 127.143" xml:space="preserve">
<path fill="#C9C7CA" stroke="#636360" stroke-width="0.25" stroke-miterlimit="10" d="M31.107,22.658c0,0,3.708-1.89,4.583-1.515
	c0,0,4.837-0.054,8.917,3.5c5.771,5.029,10.766,13.615,11.022,16.362c0,0-3.397-1.097-8.21,0.966c0,0-19.875,8.75-22.063,12.25
	l-1.375,1.438c0,0-3.625-19.5-1.875-22.625C22.107,33.033,29.794,22.533,31.107,22.658z"/>
<path fill="#C9C7CA" stroke="#636360" stroke-width="0.25" stroke-miterlimit="10" d="M52.083,39.093c0,0,11.606,4.592,12.043,18.38
	c0,0,0.447,12.063-0.803,16.397c0,0-20.717-18.167-36.467,1.999c0,0-7.167-10.67-2.875-20.211
	C23.982,55.658,27.476,38.484,52.083,39.093z"/>
<path fill="#C9C7CA" stroke="#636360" stroke-width="0.25" stroke-miterlimit="10" d="M26.186,75.172c0,0-4.156,17.258,5.937,15.352
	c0.262-0.049,0.533-0.111,0.813-0.188c0,0,0.5,6.75,3.75,5.875c0,0,0.775,7.75,6.013,6.5c0,0-1.666,6.264,12.258,1.555
	c0.396-0.135,0.807-0.277,1.229-0.43l1.125-1.125c0,0,0.125,4.367,5,3.309s0-0.559,0-0.559s6.125,3.936,6.125-14.783
	c0,0,0.703-15.383-10.898-21.801C57.538,68.877,40.686,57.51,26.186,75.172z"/>
<path fill="#C9C7CA" stroke="#636360" stroke-width="0.25" stroke-miterlimit="10" d="M37.357,96.909c0,0,6.625-0.375,7.25-4.125"/>
<path fill="#C9C7CA" stroke="#636360" stroke-width="0.25" stroke-miterlimit="10" d="M43.37,103.409c0,0,5.737-1.25,4.987-5"/>
<path fill="#C9C7CA" stroke="#636360" stroke-width="0.25" stroke-miterlimit="10" d="M33.607,91.034c0,0,2.25-6.625,0-7.625"/>
<path fill="#5C3971" stroke="#636360" stroke-width="0.25" stroke-miterlimit="10" d="M38.629,81.659c0,0,2.3-3.445,4.038-3.889
	c0.248-0.063,0.484-0.064,0.702,0.014c1.737,0.625,19.112,21.875,19.112,21.875s4.125,3.625,4.875,3.75c0,0-4.125,7.5-10.375,0.625
	C56.982,104.034,38.902,84.659,38.629,81.659z"/>
<path fill="#3D7F3C" stroke="#636360" stroke-width="0.25" stroke-miterlimit="10" d="M61.607,87.221c0,0,0.25-9.057,3.5-9.498
	c0,0,4.97,5.186,3,14.061C68.107,91.784,67.982,95.784,61.607,87.221z"/>
<path fill="#70191C" stroke="#636360" stroke-width="0.25" stroke-miterlimit="10" d="M45.897,25.843c0,0,11.372-8.42,17.043-0.2
	c0,0-0.286,4.142-2.417,8c-1.126,2.039-3.561,4.5-4.966,5.399L45.897,25.843z"/>
</svg>
